<svg width="180" height="174" viewBox="0 0 180 174" fill="none" xmlns="http://www.w3.org/2000/svg">
<path d="M127.5 107L127.5 124M127.5 124L133 118.351M127.5 124L122 118.351" stroke="black"/>
<path d="M70.7669 152.824C32.1944 142.013 9.69134 101.972 20.5053 63.3895C25.909 44.1101 38.0861 30.7016 53.7189 23.4487C69.3646 16.1897 88.5148 15.0791 107.855 20.4998C127.326 25.9572 144.438 32.7887 155.326 43.0323C160.756 48.1407 164.626 54.0878 166.479 61.1351C168.332 68.1852 168.18 76.3907 165.477 86.0356C160.065 105.346 146.007 124.772 128.448 138.007C110.882 151.248 89.945 158.2 70.7669 152.824Z" stroke="black" stroke-width="1.5"/>
</svg>
