<svg width="103" height="69" viewBox="0 0 103 69" fill="none" xmlns="http://www.w3.org/2000/svg">
<path fill-rule="evenodd" clip-rule="evenodd" d="M74.7372 7.70784C79.7338 7.91128 83.7053 9.91897 87.677 12.1734C100.702 19.5766 105.059 31.0631 96.1331 42.3506C82.2537 59.8548 49.9251 71.311 24.8568 66.0239C19.305 64.8587 11.7888 63.8317 6.2797 58.1415C1.15499 52.8507 1.36852 46.561 3.71734 40.738C6.10887 34.7676 10.7211 29.2727 14.3938 25.7406C30.4512 10.3299 62.6088 -3.67631 91.6915 3.70765C92.2894 3.84993 92.8874 3.60526 93.0582 3.16121C93.229 2.71715 92.9298 2.241 92.3746 2.09873C62.4378 -5.5005 29.2553 8.80647 12.7281 24.6663C8.15859 29.0706 2.1801 36.4228 0.471859 44.0298C-0.681201 49.229 0.130045 54.5438 4.57146 59.1671C10.4222 65.2284 18.4083 66.4156 24.3017 67.6565C50.1815 73.1173 83.6199 61.3262 97.9264 43.2479C107.535 31.1158 102.923 18.7581 88.9156 10.8007C84.645 8.35465 80.2889 6.24084 74.8652 6.02051C74.2673 5.99651 73.755 6.35507 73.755 6.82075C73.7123 7.28643 74.182 7.68384 74.7372 7.70784Z" fill="black"/>
</svg>
