<svg width="16" height="16" viewBox="0 0 16 16" fill="none" xmlns="http://www.w3.org/2000/svg">
<path d="M2.14601 2.85463C2.09952 2.80814 2.06264 2.75295 2.03748 2.69221C2.01232 2.63148 1.99937 2.56638 1.99937 2.50063C1.99937 2.43489 2.01232 2.36979 2.03748 2.30905C2.06264 2.24831 2.09952 2.19312 2.14601 2.14663C2.19249 2.10014 2.24768 2.06327 2.30842 2.03811C2.36916 2.01295 2.43426 2 2.50001 2C2.56575 2 2.63085 2.01295 2.69159 2.03811C2.75233 2.06327 2.80752 2.10014 2.85401 2.14663L8.00001 7.29363L13.146 2.14663C13.1925 2.10014 13.2477 2.06327 13.3084 2.03811C13.3692 2.01295 13.4343 2 13.5 2C13.5657 2 13.6308 2.01295 13.6916 2.03811C13.7523 2.06327 13.8075 2.10014 13.854 2.14663C13.9005 2.19312 13.9374 2.24831 13.9625 2.30905C13.9877 2.36979 14.0006 2.43489 14.0006 2.50063C14.0006 2.56638 13.9877 2.63148 13.9625 2.69221C13.9374 2.75295 13.9005 2.80814 13.854 2.85463L8.70701 8.00063L13.854 13.1466C13.9005 13.1931 13.9374 13.2483 13.9625 13.309C13.9877 13.3698 14.0006 13.4349 14.0006 13.5006C14.0006 13.5664 13.9877 13.6315 13.9625 13.6922C13.9374 13.753 13.9005 13.8081 13.854 13.8546C13.8075 13.9011 13.7523 13.938 13.6916 13.9632C13.6308 13.9883 13.5657 14.0013 13.5 14.0013C13.4343 14.0013 13.3692 13.9883 13.3084 13.9632C13.2477 13.938 13.1925 13.9011 13.146 13.8546L8.00001 8.70763L2.85401 13.8546C2.80752 13.9011 2.75233 13.938 2.69159 13.9632C2.63085 13.9883 2.56575 14.0013 2.50001 14.0013C2.43426 14.0013 2.36916 13.9883 2.30842 13.9632C2.24768 13.938 2.19249 13.9011 2.14601 13.8546C2.09952 13.8081 2.06264 13.753 2.03748 13.6922C2.01232 13.6315 1.99937 13.5664 1.99937 13.5006C1.99937 13.4349 2.01232 13.3698 2.03748 13.309C2.06264 13.2483 2.09952 13.1931 2.14601 13.1466L7.29301 8.00063L2.14601 2.85463Z" fill="black"/>
</svg>
