<?xml version="1.0" standalone="no"?>
<!DOCTYPE svg PUBLIC "-//W3C//DTD SVG 20010904//EN"
 "http://www.w3.org/TR/2001/REC-SVG-20010904/DTD/svg10.dtd">
<svg version="1.0" xmlns="http://www.w3.org/2000/svg"
 width="512.000000pt" height="512.000000pt" viewBox="0 0 512.000000 512.000000"
 preserveAspectRatio="xMidYMid meet">

<g transform="translate(0.000000,512.000000) scale(0.100000,-0.100000)"
fill="#000000" stroke="none">
<path d="M2225 4065 c-235 -52 -427 -225 -498 -450 -32 -102 -31 -302 2 -395
71 -204 231 -360 436 -427 114 -37 266 -37 380 0 449 146 610 670 320 1040
-147 187 -411 283 -640 232z"/>
<path d="M1790 2726 c-194 -58 -385 -171 -502 -294 -122 -129 -209 -306 -237
-482 -17 -103 -14 -528 4 -579 34 -99 95 -141 270 -189 259 -71 498 -112 775
-133 219 -17 576 -4 773 27 l38 6 -36 35 c-169 164 -260 436 -226 673 15 100
55 218 102 296 47 80 168 205 253 261 83 56 218 109 299 119 31 4 60 10 63 15
8 13 -144 115 -251 168 -55 28 -142 62 -194 77 -90 26 -95 26 -120 10 -213
-140 -496 -169 -742 -77 -30 12 -81 37 -113 56 -32 19 -64 35 -70 34 -6 0 -45
-10 -86 -23z"/>
<path d="M3340 2314 c-238 -46 -436 -219 -512 -449 -33 -100 -33 -270 0 -370
68 -205 222 -359 427 -427 57 -19 91 -23 185 -23 94 0 128 4 185 23 466 155
606 724 261 1064 -122 120 -253 177 -421 183 -55 2 -111 1 -125 -1z m8 -427
l92 -92 93 92 c50 50 102 94 114 98 49 14 112 -50 97 -99 -3 -11 -47 -63 -97
-113 l-92 -93 92 -92 c50 -51 94 -103 97 -114 15 -49 -48 -113 -97 -99 -12 4
-64 48 -114 98 l-93 92 -92 -92 c-51 -50 -103 -94 -114 -97 -49 -15 -113 48
-99 97 4 12 48 64 98 115 l92 92 -92 93 c-50 50 -94 102 -97 113 -15 49 43
109 94 98 14 -3 67 -46 118 -97z"/>
</g>
</svg>
