<svg width="40" height="40" viewBox="0 0 40 40" fill="none" xmlns="http://www.w3.org/2000/svg">
<path d="M19.0803 0.00190438C29.1356 0.00190438 37.3783 7.76663 38.1091 17.6187C37.1865 17.2386 36.1864 17.0832 35.1917 17.1654C34.7017 13.0691 32.6638 9.31382 29.4942 6.66624C26.3245 4.01866 22.262 2.67837 18.136 2.91897C14.0099 3.15958 10.1314 4.96293 7.2922 7.96091C4.45297 10.9589 2.86707 14.9255 2.85823 19.0509C2.85865 23.1133 4.38887 27.0271 7.14532 30.0159C9.90176 33.0047 13.683 34.8501 17.739 35.186L17.2925 36.9648C17.2068 37.3047 17.1657 37.6543 17.1704 38.0047C7.52718 37.0467 3.19505e-07 28.9278 3.19505e-07 19.049C-0.00190771 8.52844 8.54225 0 19.0803 0V0.00190438ZM19.0803 27.6232C21.1783 27.6265 23.2044 26.8607 24.7739 25.4711L20.0152 30.219C19.937 30.2972 19.8607 30.3772 19.7863 30.459C17.9371 30.5748 16.0875 30.2403 14.3967 29.4842C12.7058 28.7281 11.2245 27.5731 10.0801 26.1186C9.85535 25.8203 9.75651 25.446 9.80475 25.0758C9.853 24.7056 10.0445 24.369 10.3383 24.138C10.632 23.907 11.0047 23.8 11.3766 23.8398C11.7484 23.8797 12.0898 24.0632 12.3278 24.3512C13.1308 25.3723 14.1561 26.1976 15.326 26.7645C16.496 27.3313 17.7798 27.625 19.0803 27.6232ZM13.3562 12.8631C13.6772 12.8503 13.9975 12.9023 14.2978 13.0161C14.5981 13.1299 14.8724 13.303 15.104 13.5252C15.3357 13.7473 15.52 14.0139 15.6458 14.3089C15.7717 14.6039 15.8366 14.9212 15.8366 15.2419C15.8366 15.5625 15.7717 15.8799 15.6458 16.1749C15.52 16.4699 15.3357 16.7364 15.104 16.9586C14.8724 17.1807 14.5981 17.3539 14.2978 17.4677C13.9975 17.5814 13.6772 17.6334 13.3562 17.6206C12.7237 17.6206 12.117 17.3698 11.6697 16.9233C11.2225 16.4769 10.9712 15.8714 10.9712 15.24C10.9712 14.6086 11.2225 14.0031 11.6697 13.5566C12.117 13.1101 12.7237 12.8593 13.3562 12.8593V12.8631ZM24.8044 12.8631C25.1254 12.8503 25.4456 12.9023 25.746 13.0161C26.0463 13.1299 26.3205 13.303 26.5522 13.5252C26.7838 13.7473 26.9681 14.0139 27.094 14.3089C27.2199 14.6039 27.2848 14.9212 27.2848 15.2419C27.2848 15.5625 27.2199 15.8799 27.094 16.1749C26.9681 16.4699 26.7838 16.7364 26.5522 16.9586C26.3205 17.1807 26.0463 17.3539 25.746 17.4677C25.4456 17.5814 25.1254 17.6334 24.8044 17.6206C24.1838 17.6031 23.5945 17.3447 23.1617 16.9003C22.7289 16.456 22.4868 15.8607 22.4868 15.2409C22.4868 14.6212 22.7289 14.0259 23.1617 13.5815C23.5945 13.1372 24.1838 12.8788 24.8044 12.8612V12.8631ZM32.6273 20.3231L21.3642 31.5655C20.708 32.2208 20.2424 33.0417 20.0171 33.9405L19.1433 37.4276C19.0564 37.7746 19.061 38.1381 19.1567 38.4828C19.2524 38.8274 19.4359 39.1414 19.6894 39.3942C19.9428 39.647 20.2575 39.8299 20.6029 39.9252C20.9482 40.0205 21.3124 40.0248 21.66 39.9378L25.1517 39.0674C26.053 38.8424 26.8762 38.377 27.5329 37.7209L38.7941 26.4805C39.5804 25.6578 40.0131 24.5608 39.9997 23.4239C39.9863 22.287 39.5279 21.2005 38.7225 20.3965C37.917 19.5926 36.8285 19.135 35.6895 19.1216C34.5505 19.1083 33.4515 19.5402 32.6273 20.325V20.3231Z" fill="#F8C846"/>
</svg>
