<svg width="58" height="58" viewBox="0 0 58 58" fill="none" xmlns="http://www.w3.org/2000/svg">
<path fill-rule="evenodd" clip-rule="evenodd" d="M22.9742 11.4294C22.8189 10.5076 22.7018 9.59628 22.6262 8.68485C22.5123 7.31771 22.5827 5.94011 22.5423 4.57297C22.5247 3.99297 22.4553 2.48085 22.4833 2.26335C22.737 0.367988 24.2668 0.0779525 24.7142 0.0261668C24.9307 -0.00490461 27.1533 -0.253365 27.6328 2.21164C28.2211 5.22556 28.4096 8.26017 28.2015 11.2327C28.6872 13.7598 29.5179 16.2765 30.6147 18.5551C34.9792 27.6176 43.296 28.498 52.3067 28.4151C53.6925 28.3944 54.8432 29.4819 54.9157 30.8594C54.9882 32.2473 53.9566 33.4487 52.577 33.573C47.5404 34.0598 38.6042 38.0991 35.5146 42.3041C34.8683 43.1845 34.4924 45.3077 33.9952 47.3895C33.3013 50.2791 32.4759 53.1377 31.551 54.3391C31.4122 54.5255 29.725 56.4313 29.2216 56.7109C28.0119 57.3738 27.0436 56.9905 26.4936 56.6384C25.9436 56.2862 25.3211 55.5923 25.0726 54.4426C24.8126 53.2412 25.0322 50.7762 24.9918 50.2479C24.8447 48.3319 24.4615 44.5723 23.6796 41.3408C23.258 39.6008 22.8085 37.9955 22.0649 37.198C19.3119 34.2462 14.9102 34.6812 11.2033 35.168C10.7777 35.2198 10.352 35.282 9.92734 35.3338C8.4183 35.7791 6.81602 36.1105 5.12262 36.3073C2.56544 36.6076 2.14497 34.2566 2.12219 34.1012C2.07454 33.7594 1.89742 31.9987 3.82488 31.2944C4.03513 31.222 5.58665 30.8801 6.18425 30.7455C7.01697 30.5591 7.85899 30.4141 8.70413 30.2795C17.4342 27.5659 22.1757 19.943 22.9742 11.4294ZM25.9705 20.8441C29.2662 27.6591 34.2676 30.9526 40.1961 32.4441H40.1951C36.4934 34.3809 33.1263 36.8045 31.3417 39.2384C30.6644 40.1602 30.043 42.0141 29.4826 44.0959C29.1792 42.1591 28.7691 40.0979 28.2274 38.3372C27.6111 36.3279 26.7815 34.6606 25.8556 33.6663C24.0679 31.7502 21.8246 30.6834 19.4124 30.1552C22.2999 27.597 24.4895 24.407 25.9705 20.8441Z" fill="black"/>
</svg>
