<svg width="52" height="57" viewBox="0 0 52 57" fill="none" xmlns="http://www.w3.org/2000/svg">
<path fill-rule="evenodd" clip-rule="evenodd" d="M17.3985 53.1928C12.4332 51.7987 7.23479 51.0955 2.19195 50.4512C1.10581 50.3161 0.0973923 51.0698 0.0198103 52.1317C-0.135354 53.1943 0.640921 54.1662 1.64949 54.3012C6.53715 54.9214 11.5795 55.5851 16.312 56.9271C17.3206 57.2182 18.4072 56.619 18.7175 55.5882C19.0279 54.5581 18.407 53.4846 17.3985 53.1928Z" fill="black"/>
<path fill-rule="evenodd" clip-rule="evenodd" d="M32.4487 33.4284C24.4578 25.2696 15.4583 18.1611 7.62247 9.78339C6.92423 9.00097 5.68292 8.95905 4.9071 9.68946C4.13128 10.4207 4.054 11.6502 4.82982 12.4326C12.6656 20.8343 21.6651 27.9662 29.6561 36.149C30.4319 36.9128 31.6729 36.9237 32.4487 36.1723C33.1469 35.4217 33.2245 34.1922 32.4487 33.4284Z" fill="black"/>
<path fill-rule="evenodd" clip-rule="evenodd" d="M47.4229 2.04591C47.6556 6.71561 47.8879 11.3853 48.1207 16.0558C48.1207 17.1254 49.0521 17.9513 50.1382 17.8993C51.2244 17.8465 51.9998 16.936 51.9998 15.8656C51.767 11.1881 51.5347 6.51146 51.302 1.83478C51.2244 0.765158 50.2933 -0.0552999 49.2071 0.0029161C48.1985 0.0611321 47.3453 0.977066 47.4229 2.04591Z" fill="black"/>
</svg>
