<svg width="20" height="20" viewBox="0 0 20 20" fill="none" xmlns="http://www.w3.org/2000/svg">
<path d="M11.002 2.38811C10.7267 2.14075 10.3696 2.00391 9.9995 2.00391C9.62938 2.00391 9.27232 2.14075 8.997 2.38811L3.497 7.33011C3.34062 7.47074 3.21556 7.64268 3.12994 7.83477C3.04432 8.02686 3.00005 8.2348 3 8.44511V15.5001C3 15.8979 3.15804 16.2795 3.43934 16.5608C3.72064 16.8421 4.10218 17.0001 4.5 17.0001H6.5C6.89782 17.0001 7.27936 16.8421 7.56066 16.5608C7.84196 16.2795 8 15.8979 8 15.5001V11.5001C8 11.3675 8.05268 11.2403 8.14645 11.1466C8.24021 11.0528 8.36739 11.0001 8.5 11.0001H11.5C11.6326 11.0001 11.7598 11.0528 11.8536 11.1466C11.9473 11.2403 12 11.3675 12 11.5001V15.5001C12 15.8979 12.158 16.2795 12.4393 16.5608C12.7206 16.8421 13.1022 17.0001 13.5 17.0001H15.5C15.8978 17.0001 16.2794 16.8421 16.5607 16.5608C16.842 16.2795 17 15.8979 17 15.5001V8.44511C17 8.2348 16.9557 8.02686 16.8701 7.83477C16.7844 7.64268 16.6594 7.47074 16.503 7.33011L11.003 2.38811H11.002Z" fill="black"/>
</svg>
