<svg width="24" height="24" viewBox="0 0 24 24" fill="none" xmlns="http://www.w3.org/2000/svg">
<path d="M15.3 21C15.5387 21 15.7676 20.9052 15.9364 20.7364C16.1052 20.5676 16.2 20.3387 16.2 20.1C16.2 19.8613 16.1052 19.6324 15.9364 19.4636C15.7676 19.2948 15.5387 19.2 15.3 19.2H7.79998C7.16346 19.2 6.55301 18.9471 6.10292 18.4971C5.65283 18.047 5.39998 17.4365 5.39998 16.8V7.2C5.39998 6.56348 5.65283 5.95303 6.10292 5.50294C6.55301 5.05286 7.16346 4.8 7.79998 4.8H15.3C15.5387 4.8 15.7676 4.70518 15.9364 4.5364C16.1052 4.36761 16.2 4.13869 16.2 3.9C16.2 3.66131 16.1052 3.43239 15.9364 3.2636C15.7676 3.09482 15.5387 3 15.3 3H7.79998C6.68607 3 5.61778 3.4425 4.83013 4.23015C4.04247 5.0178 3.59998 6.08609 3.59998 7.2V16.8C3.59998 17.9139 4.04247 18.9822 4.83013 19.7699C5.61778 20.5575 6.68607 21 7.79998 21H15.3ZM16.4892 7.4388C16.576 7.35857 16.6778 7.29623 16.7887 7.25534C16.8996 7.21446 17.0175 7.19582 17.1356 7.2005C17.2537 7.20518 17.3698 7.23309 17.4771 7.28262C17.5844 7.33216 17.681 7.40235 17.7612 7.4892L21.3612 11.3892C21.5148 11.5555 21.6002 11.7736 21.6002 12C21.6002 12.2264 21.5148 12.4445 21.3612 12.6108L17.7612 16.5108C17.599 16.686 17.3739 16.7896 17.1354 16.7988C16.8968 16.8081 16.6644 16.7222 16.4892 16.56C16.314 16.3978 16.2104 16.1727 16.2011 15.9342C16.1919 15.6956 16.2778 15.4632 16.44 15.288L18.6456 12.8988H9.29998C9.06128 12.8988 8.83236 12.804 8.66358 12.6352C8.4948 12.4664 8.39998 12.2375 8.39998 11.9988C8.39998 11.7601 8.4948 11.5312 8.66358 11.3624C8.83236 11.1936 9.06128 11.0988 9.29998 11.0988H18.6444L16.4388 8.7096C16.3585 8.62278 16.2962 8.521 16.2553 8.41009C16.2144 8.29917 16.1958 8.18128 16.2005 8.06316C16.2052 7.94504 16.2331 7.829 16.2826 7.72166C16.3321 7.61433 16.4023 7.5178 16.4892 7.4376V7.4388Z" fill="black"/>
</svg>
