<svg width="40" height="40" viewBox="0 0 40 40" fill="none" xmlns="http://www.w3.org/2000/svg">
<path d="M34.8438 30.1562H31.7188V27.0312C31.7188 26.8593 31.5782 26.7187 31.4063 26.7187H29.5313C29.3595 26.7187 29.2188 26.8593 29.2188 27.0312V30.1562H26.0938C25.922 30.1562 25.7813 30.2968 25.7813 30.4687V32.3437C25.7813 32.5156 25.922 32.6562 26.0938 32.6562H29.2188V35.7812C29.2188 35.9531 29.3595 36.0937 29.5313 36.0937H31.4063C31.5782 36.0937 31.7188 35.9531 31.7188 35.7812V32.6562H34.8438C35.0157 32.6562 35.1563 32.5156 35.1563 32.3437V30.4687C35.1563 30.2968 35.0157 30.1562 34.8438 30.1562ZM14.5899 19.4687C14.5548 19.1288 14.5353 18.7851 14.5353 18.4374C14.5353 17.8163 14.5938 17.2109 14.7032 16.621C14.7306 16.4804 14.6563 16.3359 14.5274 16.2773C13.9962 16.039 13.5079 15.7109 13.086 15.2968C12.5889 14.8148 12.1977 14.2345 11.9375 13.5928C11.6772 12.9512 11.5535 12.2624 11.5743 11.5703C11.6095 10.3163 12.1134 9.12494 12.9923 8.2265C13.9571 7.23822 15.254 6.69916 16.6329 6.71478C17.879 6.7265 19.0821 7.20697 19.9923 8.05853C20.3009 8.3476 20.5665 8.66791 20.7892 9.01166C20.8673 9.13275 21.0196 9.18353 21.1524 9.13666C21.8399 8.89838 22.5665 8.73041 23.3126 8.65228C23.5313 8.62885 23.6563 8.39447 23.5587 8.19916C22.2892 5.68744 19.6954 3.95306 16.6954 3.90619C12.3673 3.83978 8.75791 7.39057 8.75791 11.7187C8.75791 14.1718 9.88682 16.3593 11.6563 17.7929C10.4142 18.3671 9.26963 19.1601 8.27744 20.1523C6.13682 22.289 4.92588 25.1093 4.84775 28.121C4.84671 28.1627 4.85402 28.2042 4.86926 28.243C4.8845 28.2818 4.90735 28.3172 4.93647 28.3471C4.9656 28.3769 5.0004 28.4006 5.03883 28.4168C5.07727 28.433 5.11855 28.4414 5.16025 28.4413H7.35166C7.51963 28.4413 7.66025 28.3085 7.66416 28.1406C7.73838 25.8749 8.65635 23.7538 10.2696 22.1445C11.4181 20.996 12.8243 20.1992 14.3595 19.8124C14.5079 19.7695 14.6095 19.6249 14.5899 19.4687V19.4687ZM32.1876 18.4374C32.1876 14.164 28.754 10.6913 24.4962 10.6249C20.1681 10.5585 16.5626 14.1093 16.5626 18.4374C16.5626 20.8906 17.6954 23.0781 19.461 24.5117C18.206 25.0934 17.0635 25.8921 16.086 26.871C13.9454 29.0078 12.7345 31.8281 12.6563 34.8359C12.6553 34.8776 12.6626 34.919 12.6779 34.9579C12.6931 34.9967 12.7159 35.0321 12.7451 35.0619C12.7742 35.0918 12.809 35.1155 12.8474 35.1317C12.8859 35.1479 12.9271 35.1562 12.9688 35.1562H15.1563C15.3243 35.1562 15.4649 35.0234 15.4688 34.8554C15.5431 32.5898 16.461 30.4687 18.0743 28.8593C19.7579 27.1757 21.9923 26.2499 24.3751 26.2499C28.6876 26.2499 32.1876 22.7538 32.1876 18.4374ZM27.9103 21.9726C26.9649 22.9179 25.711 23.4374 24.3751 23.4374C23.0392 23.4374 21.7853 22.9179 20.8399 21.9726C20.3682 21.5033 19.9955 20.9441 19.7439 20.3282C19.4922 19.7122 19.3668 19.052 19.3751 18.3867C19.3868 17.1054 19.8985 15.8671 20.7931 14.9492C21.7306 13.9882 22.9845 13.4531 24.3243 13.4374C25.6485 13.4257 26.9337 13.9413 27.879 14.8671C28.8478 15.8163 29.379 17.0859 29.379 18.4374C29.3751 19.7734 28.8556 21.0273 27.9103 21.9726V21.9726Z" fill="#979797"/>
</svg>
