<svg width="24" height="24" viewBox="0 0 24 24" fill="none" xmlns="http://www.w3.org/2000/svg">
<path d="M18 12.1797L16.5 13.8197L18.5 15.9997H5.5L7.5 13.8197L6 12.1797L3 15.4497V19.9997C3 21.0997 3.9 21.9997 5 21.9997H19C20.1 21.9997 21 21.0997 21 19.9997V15.4597L18 12.1797V12.1797Z" fill="black"/>
<path d="M10.59 14.4209C11.37 15.2109 12.64 15.2209 13.43 14.4309L18.41 9.45086C19.19 8.67086 19.19 7.40086 18.41 6.62086L14.87 3.09086C14.09 2.31086 12.82 2.31086 12.04 3.09086L7.09002 8.04086C6.71619 8.41426 6.5053 8.92042 6.50343 9.4488C6.50156 9.97717 6.70884 10.4848 7.08002 10.8609L10.59 14.4209ZM13.46 4.50086L16.99 8.03086L12.05 12.9709L8.52002 9.44086L13.46 4.50086V4.50086Z" fill="black"/>
</svg>
