<svg width="20" height="21" viewBox="0 0 20 21" fill="none" xmlns="http://www.w3.org/2000/svg">
<path d="M19.945 13.4716L19.966 13.5336L19.989 13.6336L19.999 13.7336V20.2496C19.9989 20.4312 19.933 20.6065 19.8135 20.7431C19.6939 20.8798 19.5289 20.9684 19.349 20.9926L19.249 20.9996H0.75C0.568762 20.9996 0.393658 20.934 0.257069 20.8149C0.120481 20.6957 0.0316483 20.5312 0.00699997 20.3516L0 20.2496V13.7496L0.00200009 13.6976L0.0120001 13.6116C0.0221495 13.5591 0.0379063 13.5078 0.059 13.4586L2.819 7.43962C2.87106 7.32584 2.95076 7.22688 3.05084 7.15178C3.15092 7.07668 3.2682 7.02781 3.392 7.00962L3.5 7.00262L6.04 7.00162L5.25 8.37162L5.183 8.50162H3.98L1.918 12.9996H18.07L16.043 8.65362L16.905 7.15662C16.972 7.20662 17.03 7.26962 17.077 7.34062L17.13 7.43562L19.945 13.4716ZM11.365 1.05562L11.457 1.10062L16.645 4.10362C16.973 4.29362 17.103 4.69462 16.964 5.03662L16.919 5.12862L14.112 9.99962H15.25C15.4414 9.99767 15.6263 10.069 15.7668 10.1989C15.9073 10.3288 15.9928 10.5076 16.0059 10.6985C16.0189 10.8894 15.9585 11.0781 15.8369 11.226C15.7153 11.3738 15.5419 11.4695 15.352 11.4936L15.25 11.5006L13.248 11.4996V11.5026H9.169L9.166 11.4996H4.75C4.56116 11.4978 4.37995 11.4249 4.24254 11.2954C4.10513 11.1658 4.02165 10.9892 4.00877 10.8008C3.99589 10.6124 4.05456 10.4261 4.17306 10.279C4.29156 10.132 4.46116 10.0351 4.648 10.0076L4.75 10.0006L6.573 9.99962L6.391 9.89462C6.23454 9.80345 6.11624 9.65889 6.05782 9.48749C5.9994 9.31609 6.00479 9.12936 6.073 8.96162L6.117 8.86962L10.434 1.37362C10.624 1.04462 11.024 0.913619 11.365 1.05362V1.05562ZM11.355 2.77562L7.789 8.96962L9.567 9.99962H12.384L15.249 5.02662L11.357 2.77362L11.355 2.77562Z" fill="white"/>
</svg>
