<svg width="16" height="16" viewBox="0 0 16 16" fill="none" xmlns="http://www.w3.org/2000/svg">
<path fill-rule="evenodd" clip-rule="evenodd" d="M4.47542 5.458C4.19142 5.458 3.96142 5.221 4.00542 4.941C4.28042 3.24 5.57642 2 7.82542 2C10.0754 2 11.5924 3.36 11.5924 5.215C11.5924 6.559 10.9274 7.503 9.80242 8.188C8.70242 8.847 8.38842 9.306 8.38842 10.198V10.228C8.38842 10.3606 8.33574 10.4878 8.24197 10.5816C8.1482 10.6753 8.02103 10.728 7.88842 10.728H7.11842C6.98667 10.728 6.86025 10.676 6.76662 10.5833C6.673 10.4906 6.61974 10.3647 6.61842 10.233L6.61542 10.033C6.57242 8.812 7.09242 8.032 8.26042 7.321C9.29042 6.689 9.65742 6.186 9.65742 5.293C9.65742 4.314 8.89942 3.595 7.73142 3.595C6.72242 3.595 6.02142 4.124 5.79342 4.997C5.72742 5.251 5.51542 5.458 5.25342 5.458H4.47642H4.47542ZM7.49642 14C8.11842 14 8.59142 13.526 8.59142 12.91C8.59142 12.292 8.11842 11.818 7.49642 11.818C6.89042 11.818 6.40942 12.292 6.40942 12.909C6.40942 13.526 6.89042 14 7.49642 14Z" fill="white"/>
</svg>
