<svg width="24" height="24" viewBox="0 0 24 24" fill="none" xmlns="http://www.w3.org/2000/svg">
<path d="M12 12C14.7614 12 17 9.76142 17 7C17 4.23858 14.7614 2 12 2C9.23858 2 7 4.23858 7 7C7 9.76142 9.23858 12 12 12Z" stroke="black" stroke-width="2"/>
<path d="M17.0001 22H5.26606C4.98244 22.0001 4.70206 21.9398 4.44351 21.8232C4.18496 21.7066 3.95416 21.5364 3.76644 21.3238C3.57871 21.1112 3.43835 20.8611 3.35467 20.5901C3.27098 20.3191 3.24589 20.0334 3.28106 19.752L3.67106 16.628C3.76176 15.9022 4.11448 15.2346 4.66289 14.7506C5.21131 14.2667 5.91764 13.9997 6.64906 14H7.00006M16.0001 16L18.2501 18L22.0001 14" stroke="black" stroke-width="2" stroke-linecap="round" stroke-linejoin="round"/>
</svg>
