<svg width="80" height="80" viewBox="0 0 80 80" fill="none" xmlns="http://www.w3.org/2000/svg">
<path d="M16.8253 50.4119C16.8253 55.0469 13.0794 58.7931 8.44437 58.7931C3.80937 58.7931 0.0634308 55.0469 0.0634308 50.4119C0.0634308 45.7772 3.80937 42.0312 8.44468 42.0312H16.825V50.4122L16.8253 50.4119ZM21.0159 50.4119C21.0159 45.7772 24.7619 42.0312 29.3969 42.0312C34.0319 42.0312 37.7778 45.7772 37.7778 50.4122V71.3644C37.7778 75.9994 34.0319 79.7456 29.3966 79.7456C24.7622 79.7456 21.0159 75.9994 21.0159 71.3644V50.4122V50.4119Z" fill="#E01E5A"/>
<path d="M29.3969 16.7619C24.7619 16.7619 21.0156 13.0159 21.0156 8.38094C21.0156 3.74594 24.7622 0 29.3969 0C34.0316 0 37.7778 3.74594 37.7778 8.38094V16.7622H29.3966L29.3969 16.7619ZM29.3969 21.0159C34.0319 21.0159 37.7778 24.7619 37.7778 29.3969C37.7778 34.0319 34.0319 37.7778 29.3966 37.7778H8.38125C3.74594 37.7778 0 34.0319 0 29.3966C0 24.7622 3.74594 21.0159 8.38094 21.0159H29.3966H29.3969Z" fill="#36C5F0"/>
<path d="M62.9844 29.3969C62.9844 24.7619 66.7303 21.0156 71.365 21.0156C76 21.0156 79.7462 24.7619 79.7462 29.3969C79.7462 34.0319 76 37.7778 71.365 37.7778H62.9844V29.3966V29.3969ZM58.7937 29.3969C58.7937 34.0319 55.0475 37.7778 50.4125 37.7778C45.7778 37.7778 42.0319 34.0319 42.0319 29.3966V8.38125C42.0319 3.74594 45.7778 0 50.4125 0C55.0472 0 58.7934 3.74594 58.7934 8.38094V29.3966L58.7937 29.3969Z" fill="#2EB67D"/>
<path d="M50.4125 62.9837C55.0475 62.9837 58.7937 66.7297 58.7937 71.3644C58.7937 75.9994 55.0475 79.7456 50.4125 79.7456C45.7778 79.7456 42.0319 75.9994 42.0319 71.3644V62.9837H50.4128H50.4125ZM50.4125 58.7931C45.7778 58.7931 42.0319 55.0469 42.0319 50.4119C42.0319 45.7772 45.7778 42.0312 50.4128 42.0312H71.4284C76.0634 42.0312 79.8097 45.7772 79.8097 50.4122C79.8097 55.0469 76.0634 58.7931 71.4284 58.7931H50.4128H50.4125Z" fill="#ECB22E"/>
</svg>
