<svg width="94" height="48" viewBox="0 0 94 48" fill="none" xmlns="http://www.w3.org/2000/svg">
<path fill-rule="evenodd" clip-rule="evenodd" d="M88.9978 6.58134C71.3553 39.3873 36.1125 52.7247 3.37956 34.2558C2.28987 33.6408 0.908029 34.0253 0.293038 35.1015C-0.321953 36.1969 0.0624578 37.5806 1.15215 38.1956C36.2374 58.0099 74.0766 43.8844 92.9875 8.7338C93.5795 7.63835 93.1663 6.25443 92.0651 5.65866C90.9639 5.0821 89.5897 5.48589 88.9978 6.58134Z" fill="black"/>
<path d="M30.9248 20.1866C34.5692 20.1866 37.5236 17.2323 37.5236 13.5879C37.5236 9.94356 34.5692 6.98926 30.9248 6.98926C27.2805 6.98926 24.3262 9.94356 24.3262 13.5879C24.3262 17.2323 27.2805 20.1866 30.9248 20.1866Z" fill="black"/>
<path d="M58.2431 13.1669C61.8163 13.1669 64.713 10.2704 64.713 6.69724C64.713 3.1241 61.8163 0.227539 58.2431 0.227539C54.67 0.227539 51.7734 3.1241 51.7734 6.69724C51.7734 10.2704 54.67 13.1669 58.2431 13.1669Z" fill="black"/>
</svg>
